<svg width="641" height="2709" viewBox="0 0 641 2709" fill="none" xmlns="http://www.w3.org/2000/svg">
<path fill-rule="evenodd" clip-rule="evenodd" d="M309.069 15.3906C310.881 10.4291 312.759 5.39149 314.704 0.276367L324.051 3.83041C322.122 8.90593 320.259 13.9027 318.461 18.8221L309.069 15.3906ZM289.522 74.307C292.366 64.644 295.511 54.6317 298.971 44.256L308.458 47.4193C305.033 57.6896 301.923 67.5884 299.115 77.1302L289.522 74.307ZM274.772 134.447C276.589 124.828 278.788 114.773 281.389 104.257L291.096 106.658C288.537 117.008 286.378 126.881 284.598 136.303L274.772 134.447ZM268.037 196.513C268.149 186.7 268.817 176.266 270.077 165.165L280.013 166.293C278.787 177.091 278.144 187.186 278.036 196.627L268.037 196.513ZM277.016 259.101C273.756 249.728 271.331 239.451 269.826 228.167L279.738 226.845C281.162 237.521 283.442 247.135 286.461 255.816L277.016 259.101ZM312.782 311.569C304.695 304.733 297.454 296.869 291.271 287.753L299.547 282.14C305.185 290.452 311.801 297.645 319.238 303.932L312.782 311.569ZM368.378 341.609C358.253 338.075 348.511 334.012 339.342 329.209L343.982 320.351C352.631 324.881 361.909 328.76 371.673 332.168L368.378 341.609ZM428.757 357.385C418.538 355.267 408.384 353.027 398.448 350.51L400.903 340.816C410.645 343.283 420.643 345.491 430.786 347.593L428.757 357.385ZM489.234 369.742C479.321 367.513 469.243 365.469 459.098 363.454L461.045 353.646C471.207 355.663 481.387 357.728 491.427 359.985L489.234 369.742ZM547.491 387.255C538.386 383.449 528.784 380.176 518.819 377.267L521.621 367.667C531.857 370.656 541.824 374.047 551.348 378.029L547.491 387.255ZM596.951 419.796C590.159 412.615 582.486 406.423 574.08 401.019L579.487 392.607C588.491 398.396 596.807 405.091 604.216 412.925L596.951 419.796ZM624.75 471.322C622.05 461.005 618.445 451.826 614.072 443.622L622.897 438.918C627.658 447.85 631.538 457.763 634.424 468.79L624.75 471.322ZM630.372 515.719C630.286 510.501 630.036 505.487 629.633 500.665L639.598 499.831C640.032 505.017 640.294 510.397 640.377 515.979L640.383 516.387L640.323 516.79C639.541 522.041 638.515 527.148 637.254 532.116L627.561 529.656C628.706 525.145 629.646 520.501 630.372 515.719ZM602.26 580.961C608.209 573.335 613.36 565.23 617.631 556.592L626.595 561.024C622.008 570.303 616.488 578.981 610.145 587.112L602.26 580.961ZM559.506 620.134C567.762 614.48 575.444 608.487 582.481 602.114L589.193 609.526C581.785 616.235 573.743 622.504 565.156 628.384L559.506 620.134ZM507.858 648.466C517.071 644.349 525.93 640.012 534.379 635.422L539.153 644.209C530.45 648.937 521.357 653.387 511.938 657.596L507.858 648.466ZM452.427 669.602C461.982 666.457 471.334 663.175 480.439 659.728L483.979 669.08C474.721 672.586 465.229 675.916 455.554 679.101L452.427 669.602ZM395.324 686.429C404.999 683.844 414.576 681.18 424.015 678.413L426.828 688.009C417.3 690.802 407.645 693.487 397.906 696.09L395.324 686.429ZM337.417 700.954C347.117 698.633 356.803 696.282 366.438 693.876L368.86 703.579C359.184 705.994 349.464 708.354 339.743 710.68L337.417 700.954ZM306.18 708.348L308.312 707.847L310.604 717.58L308.507 718.074C299.454 720.206 290.439 722.328 281.487 724.462L279.169 714.734C288.124 712.6 297.141 710.477 306.18 708.348ZM220.959 729.275C230.504 726.727 240.212 724.246 250.033 721.807L252.444 731.512C242.665 733.941 233.015 736.407 223.537 738.937L220.959 729.275ZM163.313 746.466C172.608 743.311 182.196 740.296 192.016 737.39L194.854 746.979C185.138 749.854 175.679 752.829 166.528 755.936L163.313 746.466ZM107.392 769.383C116.121 764.972 125.363 760.834 135.035 756.921L138.785 766.191C129.329 770.017 120.345 774.042 111.902 778.308L107.392 769.383ZM56.9892 804.073C64.0509 797.114 72.0746 790.704 80.906 784.76L86.4895 793.056C78.0882 798.711 70.5622 804.737 64.008 811.195L56.9892 804.073ZM26.2944 857.627C28.6322 847.145 32.5127 837.462 37.7554 828.498L46.3874 833.547C41.6527 841.642 38.161 850.359 36.0545 859.804L26.2944 857.627ZM28.7537 918.893C26.0134 908.26 24.415 898.177 23.8977 888.605L33.8831 888.066C34.3609 896.906 35.8434 906.332 38.4373 916.398L28.7537 918.893ZM44.8604 962.196C42.5353 957.295 40.4114 952.495 38.484 947.794L47.7366 944C49.5922 948.527 51.643 953.162 53.8954 957.91C56.146 962.655 58.4535 967.295 60.8153 971.834L51.9446 976.45C49.5255 971.801 47.1633 967.051 44.8604 962.196ZM85.1714 1029.74C79.0568 1021.49 73.1571 1012.84 67.4956 1003.74L75.9853 998.46C81.5035 1007.32 87.2505 1015.76 93.2035 1023.78L85.1714 1029.74ZM126.691 1076.89C119.242 1069.74 111.982 1062.18 104.941 1054.19L112.446 1047.58C119.298 1055.36 126.364 1062.71 133.615 1069.67L126.691 1076.89ZM175.367 1116.6C166.839 1110.68 158.448 1104.39 150.231 1097.7L156.547 1089.94C164.557 1096.47 172.743 1102.6 181.073 1108.39L175.367 1116.6ZM229.186 1148.84C219.968 1144.07 210.819 1139.01 201.779 1133.61L206.906 1125.02C215.759 1130.31 224.731 1135.27 233.787 1139.97L229.186 1148.84ZM286.046 1174.89C276.471 1170.98 266.888 1166.87 257.339 1162.52L261.487 1153.42C270.899 1157.71 280.358 1161.76 289.828 1165.63L286.046 1174.89ZM344.397 1196.92C334.724 1193.48 324.953 1189.94 315.133 1186.25L318.647 1176.89C328.396 1180.55 338.11 1184.07 347.751 1187.5L344.397 1196.92ZM402.943 1217.67C393.377 1214.19 383.611 1210.73 373.681 1207.24L376.997 1197.81C386.932 1201.3 396.743 1204.77 406.364 1208.27L402.943 1217.67ZM460.187 1240.69C451.081 1236.5 441.611 1232.5 431.831 1228.61L435.526 1219.32C445.429 1223.26 455.066 1227.32 464.367 1231.6L460.187 1240.69ZM513.077 1271.04C505.123 1265.15 496.567 1259.68 487.48 1254.55L492.401 1245.84C501.788 1251.15 510.697 1256.83 519.03 1263.01L513.077 1271.04ZM554.314 1314.45C548.93 1305.91 542.727 1298.09 535.787 1290.87L542.998 1283.94C550.377 1291.62 557.007 1299.97 562.774 1309.12L554.314 1314.45ZM575.335 1370.47C573.49 1359.96 570.859 1350.25 567.519 1341.26L576.895 1337.78C580.456 1347.37 583.24 1357.67 585.185 1368.74L575.335 1370.47ZM578.38 1415.92C578.518 1410.6 578.503 1405.43 578.34 1400.42L588.335 1400.1C588.505 1405.31 588.52 1410.67 588.376 1416.18C588.236 1421.56 587.843 1426.82 587.206 1431.97L577.282 1430.75C577.878 1425.92 578.247 1420.98 578.38 1415.92ZM558.542 1485.98C563.495 1477.48 567.599 1468.6 570.767 1459.28L580.235 1462.49C576.841 1472.48 572.453 1481.97 567.181 1491.02L558.542 1485.98ZM520.788 1531.4C528.317 1524.58 535.227 1517.49 541.445 1510.1L549.097 1516.54C542.558 1524.31 535.329 1531.72 527.504 1538.81L520.788 1531.4ZM472.651 1567.09C481.373 1561.66 489.707 1556.06 497.594 1550.26L503.517 1558.32C495.4 1564.28 486.851 1570.03 477.939 1575.58L472.651 1567.09ZM419.762 1596.16C428.938 1591.64 437.888 1587.02 446.563 1582.28L451.358 1591.06C442.543 1595.87 433.467 1600.56 424.183 1605.13L419.762 1596.16ZM364.651 1621.35C374.03 1617.33 383.293 1613.25 392.398 1609.1L396.541 1618.21C387.359 1622.39 378.03 1626.49 368.598 1630.54L364.651 1621.35ZM308.501 1644.66C317.926 1640.83 327.322 1637 336.651 1633.14L340.474 1642.38C331.115 1646.25 321.696 1650.09 312.262 1653.92L308.501 1644.66ZM252.073 1667.63C261.436 1663.76 270.854 1659.92 280.282 1656.09L284.043 1665.36C274.624 1669.18 265.229 1673.01 255.894 1676.87L252.073 1667.63ZM196.013 1691.78C205.201 1687.61 214.529 1683.51 223.952 1679.46L227.897 1688.65C218.526 1692.67 209.263 1696.75 200.151 1700.89L196.013 1691.78ZM141.136 1718.88C149.981 1714.07 159.078 1709.4 168.373 1704.83L172.783 1713.8C163.594 1718.32 154.622 1722.93 145.913 1727.67L141.136 1718.88ZM88.8788 1751.4C97.0339 1745.49 105.6 1739.79 114.511 1734.28L119.768 1742.79C111.041 1748.18 102.682 1753.74 94.7498 1759.5L88.8788 1751.4ZM42.8529 1792.64C49.5299 1784.99 56.8614 1777.68 64.7574 1770.68L71.3916 1778.16C63.7803 1784.91 56.7565 1791.91 50.3905 1799.22L42.8529 1792.64ZM10.332 1845.79C14.0606 1835.97 18.7334 1826.63 24.2442 1817.72L32.7477 1822.99C27.5538 1831.38 23.1705 1840.15 19.6806 1849.34L10.332 1845.79ZM0.389124 1891.72C0.749738 1886.37 1.35725 1881.13 2.20197 1876.01L12.0688 1877.63C11.2768 1882.44 10.7058 1887.35 10.3665 1892.39C10.0414 1897.21 10.0437 1901.92 10.355 1906.53L0.377823 1907.2C0.0355954 1902.14 0.0343123 1896.98 0.389124 1891.72ZM20.3032 1964.09C14.6171 1955.45 9.99743 1946.45 6.61942 1937.01L16.0341 1933.64C19.1157 1942.25 23.3582 1950.54 28.6545 1958.59L20.3032 1964.09ZM60.8909 2007.89C52.9823 2001.31 45.6694 1994.54 39.0607 1987.54L46.3319 1980.67C52.625 1987.34 59.6371 1993.84 67.287 2000.2L60.8909 2007.89ZM109.231 2042.11C100.642 2036.79 92.3822 2031.38 84.5215 2025.86L90.2644 2017.68C97.947 2023.07 106.046 2028.37 114.501 2033.61L109.231 2042.11ZM160.419 2071.31C151.621 2066.62 143.001 2061.9 134.612 2057.14L139.548 2048.44C147.848 2053.15 156.39 2057.83 165.127 2062.49L160.419 2071.31ZM212.669 2098.22C203.849 2093.78 195.104 2089.36 186.481 2084.93L191.048 2076.03C199.638 2080.44 208.356 2084.86 217.165 2089.29L212.669 2098.22ZM264.936 2124.54C256.226 2120.11 247.513 2115.72 238.834 2111.36L243.322 2102.42C252.007 2106.78 260.738 2111.18 269.473 2115.63L264.936 2124.54ZM316.675 2151.73C308.157 2147.07 299.56 2142.48 290.92 2137.95L295.562 2129.09C304.246 2133.64 312.898 2138.26 321.478 2142.96L316.675 2151.73ZM366.99 2181.05C358.834 2175.94 350.517 2170.95 342.077 2166.04L347.1 2157.4C355.624 2162.35 364.037 2167.4 372.296 2172.57L366.99 2181.05ZM414.845 2214.02C407.251 2208.19 399.394 2202.52 391.318 2196.97L396.977 2188.73C405.184 2194.36 413.184 2200.14 420.932 2206.08L414.845 2214.02ZM458.208 2252.24C451.596 2245.43 444.598 2238.81 437.261 2232.37L443.856 2224.85C451.377 2231.45 458.572 2238.25 465.387 2245.28L458.208 2252.24ZM493.78 2297.21C488.773 2289.16 483.239 2281.37 477.23 2273.82L485.054 2267.59C491.287 2275.42 497.047 2283.52 502.271 2291.92L493.78 2297.21ZM517.159 2349.09C514.477 2339.88 511.161 2330.98 507.266 2322.37L516.376 2318.25C520.461 2327.27 523.942 2336.61 526.76 2346.29L517.159 2349.09ZM525.21 2405.48C525.152 2395.65 524.448 2386.15 523.145 2376.95L533.047 2375.55C534.413 2385.2 535.149 2395.15 535.209 2405.42L525.21 2405.48ZM518.849 2462.31C520.975 2452.69 522.546 2443.35 523.595 2434.27L533.529 2435.42C532.439 2444.85 530.81 2454.53 528.613 2464.47L518.849 2462.31ZM501.631 2517.41C505.364 2508.03 508.622 2498.88 511.427 2489.96L520.966 2492.96C518.083 2502.13 514.742 2511.51 510.922 2521.1L501.631 2517.41ZM477.15 2569.56C481.849 2560.8 486.172 2552.23 490.131 2543.83L499.176 2548.09C495.14 2556.66 490.739 2565.39 485.961 2574.29L477.15 2569.56ZM447.517 2619.42C452.855 2611.19 457.889 2603.11 462.626 2595.17L471.214 2600.3C466.409 2608.35 461.309 2616.54 455.905 2624.86L447.517 2619.42ZM414.238 2667.18C420.075 2659.32 425.654 2651.57 430.981 2643.95L439.179 2649.67C433.795 2657.38 428.16 2665.2 422.267 2673.14L414.238 2667.18ZM386.98 2702.42C390.197 2698.42 393.351 2694.44 396.441 2690.5L404.313 2696.67C401.196 2700.65 398.018 2704.65 394.775 2708.69L386.98 2702.42Z" fill="url(#paint0_linear_8_23)"/>
<defs>
<linearGradient id="paint0_linear_8_23" x1="332.044" y1="4.05334" x2="332.044" y2="2705.55" gradientUnits="userSpaceOnUse">
<stop stop-color="#00AAFF"/>
<stop offset="0.328125" stop-color="#FF6163"/>
<stop offset="0.682292" stop-color="#A169F7"/>
<stop offset="1" stop-color="#97CF26"/>
</linearGradient>
</defs>
</svg>
